<mxfile host="app.diagrams.net" agent="Mozilla/5.0 (Windows NT 10.0; Win64; x64) AppleWebKit/537.36 (KHTML, like Gecko) Chrome/140.0.0.0 Safari/537.36" version="28.2.4">
  <diagram name="Página-1" id="HAVZxO2_sHeDZ3DqDTil">
    <mxGraphModel dx="1694" dy="1079" grid="1" gridSize="10" guides="1" tooltips="1" connect="1" arrows="1" fold="1" page="1" pageScale="1" pageWidth="1654" pageHeight="2336" math="0" shadow="0">
      <root>
        <mxCell id="0" />
        <mxCell id="1" parent="0" />
        <mxCell id="LriPo0vyb83jJ2V908es-1" value="&lt;font style=&quot;vertical-align: inherit;&quot; dir=&quot;auto&quot;&gt;&lt;font style=&quot;vertical-align: inherit;&quot; dir=&quot;auto&quot;&gt;&lt;font style=&quot;vertical-align: inherit;&quot; dir=&quot;auto&quot;&gt;&lt;font style=&quot;vertical-align: inherit;&quot; dir=&quot;auto&quot;&gt;&lt;font style=&quot;vertical-align: inherit;&quot; dir=&quot;auto&quot;&gt;&lt;font style=&quot;vertical-align: inherit;&quot; dir=&quot;auto&quot;&gt;EQUIPA&lt;/font&gt;&lt;/font&gt;&lt;/font&gt;&lt;/font&gt;&lt;/font&gt;&lt;/font&gt;" style="whiteSpace=wrap;html=1;align=center;" parent="1" vertex="1">
          <mxGeometry x="390" y="470" width="140" height="50" as="geometry" />
        </mxCell>
        <mxCell id="LriPo0vyb83jJ2V908es-2" value="&lt;font style=&quot;vertical-align: inherit;&quot; dir=&quot;auto&quot;&gt;&lt;font style=&quot;vertical-align: inherit;&quot; dir=&quot;auto&quot;&gt;NumInterno&lt;/font&gt;&lt;/font&gt;" style="ellipse;whiteSpace=wrap;html=1;align=center;fontStyle=4;" parent="1" vertex="1">
          <mxGeometry x="110" y="370" width="100" height="40" as="geometry" />
        </mxCell>
        <mxCell id="LriPo0vyb83jJ2V908es-3" value="&lt;font style=&quot;vertical-align: inherit;&quot; dir=&quot;auto&quot;&gt;&lt;font style=&quot;vertical-align: inherit;&quot; dir=&quot;auto&quot;&gt;Nome&lt;/font&gt;&lt;/font&gt;" style="ellipse;whiteSpace=wrap;html=1;align=center;" parent="1" vertex="1">
          <mxGeometry x="230" y="280" width="100" height="40" as="geometry" />
        </mxCell>
        <mxCell id="LriPo0vyb83jJ2V908es-6" value="&lt;font style=&quot;vertical-align: inherit;&quot; dir=&quot;auto&quot;&gt;&lt;font style=&quot;vertical-align: inherit;&quot; dir=&quot;auto&quot;&gt;&lt;font style=&quot;vertical-align: inherit;&quot; dir=&quot;auto&quot;&gt;&lt;font style=&quot;vertical-align: inherit;&quot; dir=&quot;auto&quot;&gt;Rua&lt;/font&gt;&lt;/font&gt;&lt;/font&gt;&lt;/font&gt;" style="ellipse;whiteSpace=wrap;html=1;align=center;" parent="1" vertex="1">
          <mxGeometry x="10" y="630" width="100" height="40" as="geometry" />
        </mxCell>
        <mxCell id="LriPo0vyb83jJ2V908es-7" value="&lt;font style=&quot;vertical-align: inherit;&quot; dir=&quot;auto&quot;&gt;&lt;font style=&quot;vertical-align: inherit;&quot; dir=&quot;auto&quot;&gt;&lt;font style=&quot;vertical-align: inherit;&quot; dir=&quot;auto&quot;&gt;&lt;font style=&quot;vertical-align: inherit;&quot; dir=&quot;auto&quot;&gt;&lt;font style=&quot;vertical-align: inherit;&quot; dir=&quot;auto&quot;&gt;&lt;font style=&quot;vertical-align: inherit;&quot; dir=&quot;auto&quot;&gt;NumPorta&lt;/font&gt;&lt;/font&gt;&lt;/font&gt;&lt;/font&gt;&lt;/font&gt;&lt;/font&gt;" style="ellipse;whiteSpace=wrap;html=1;align=center;" parent="1" vertex="1">
          <mxGeometry x="50" y="730" width="100" height="40" as="geometry" />
        </mxCell>
        <mxCell id="LriPo0vyb83jJ2V908es-8" value="&lt;font style=&quot;vertical-align: inherit;&quot; dir=&quot;auto&quot;&gt;&lt;font style=&quot;vertical-align: inherit;&quot; dir=&quot;auto&quot;&gt;&lt;font style=&quot;vertical-align: inherit;&quot; dir=&quot;auto&quot;&gt;&lt;font style=&quot;vertical-align: inherit;&quot; dir=&quot;auto&quot;&gt;&lt;font style=&quot;vertical-align: inherit;&quot; dir=&quot;auto&quot;&gt;&lt;font style=&quot;vertical-align: inherit;&quot; dir=&quot;auto&quot;&gt;&lt;font style=&quot;vertical-align: inherit;&quot; dir=&quot;auto&quot;&gt;&lt;font style=&quot;vertical-align: inherit;&quot; dir=&quot;auto&quot;&gt;CodPostal&lt;/font&gt;&lt;/font&gt;&lt;/font&gt;&lt;/font&gt;&lt;/font&gt;&lt;/font&gt;&lt;/font&gt;&lt;/font&gt;" style="ellipse;whiteSpace=wrap;html=1;align=center;" parent="1" vertex="1">
          <mxGeometry x="160" y="770" width="100" height="40" as="geometry" />
        </mxCell>
        <mxCell id="LriPo0vyb83jJ2V908es-9" value="&lt;font style=&quot;vertical-align: inherit;&quot; dir=&quot;auto&quot;&gt;&lt;font style=&quot;vertical-align: inherit;&quot; dir=&quot;auto&quot;&gt;&lt;font style=&quot;vertical-align: inherit;&quot; dir=&quot;auto&quot;&gt;&lt;font style=&quot;vertical-align: inherit;&quot; dir=&quot;auto&quot;&gt;&lt;font style=&quot;vertical-align: inherit;&quot; dir=&quot;auto&quot;&gt;&lt;font style=&quot;vertical-align: inherit;&quot; dir=&quot;auto&quot;&gt;&lt;font style=&quot;vertical-align: inherit;&quot; dir=&quot;auto&quot;&gt;&lt;font style=&quot;vertical-align: inherit;&quot; dir=&quot;auto&quot;&gt;&lt;font style=&quot;vertical-align: inherit;&quot; dir=&quot;auto&quot;&gt;&lt;font style=&quot;vertical-align: inherit;&quot; dir=&quot;auto&quot;&gt;Localidade&lt;/font&gt;&lt;/font&gt;&lt;/font&gt;&lt;/font&gt;&lt;/font&gt;&lt;/font&gt;&lt;/font&gt;&lt;/font&gt;&lt;/font&gt;&lt;/font&gt;&lt;span style=&quot;color: rgba(0, 0, 0, 0); font-family: monospace; font-size: 0px; text-align: start; text-wrap-mode: nowrap;&quot;&gt;&lt;font style=&quot;vertical-align: inherit;&quot; dir=&quot;auto&quot;&gt;&lt;font style=&quot;vertical-align: inherit;&quot; dir=&quot;auto&quot;&gt;%3CmxGraphModel%3E%3Croot%3E%3CmxCell%20id%3D%220%22%2F%3E%3CmxCell%20id%3D%221%22%20parent%3D%220%22%2F%3E%3CmxCell%20id%3D%222%22%20value%3D%22%26lt%3Bfont%20style%3D%26quot%3Bvertical-align n%3A%20herdar%3B%26quot%3B%20dir%3D%26quot%3Bauto%26quot%3B%26gt%3B%26lt%3Bfonte%20estilo%3D%26quot%3Balinhamento-vertical%3A%20herdar%3B%26quot%3B%20dir%3D%26quot%3Bauto%26quot%3B%26gt%3B%26lt%3Bf ont%20style%3D%26quot%3Bvertical-align%3A%20inherit%3B%26quot%3B%20dir%3D%26quot%3Bauto%26quot%3B%26gt%3B%26lt%3Bfont%20style%3D%26quot%3Bvertical-align%3A%20inherit%3B%26quot%3B%20dir%3D%26q uot%3Bauto%26quot%3B%26gt%3B%26lt%3Bfonte%20estilo%3D%26quot%3Balinhamentovertical%3A%20herdar%3B%26quot%3B%20dir%3D%26quot%3Bauto%26quot%3B%26gt%3B%26lt%3Bfonte%20estilo%3D%26quot%3Balinhamentovertical%3A %20herdar%3B%26quot%3B%20dir%3D%26quot%3Bauto%26quot%3B%26gt%3B%26lt%3Bfonte%20estilo%3D%26quot%3Balinhamento-vertical%3A%20herdar%3B%26quot%3B%20dir%3D%26quot%3Bauto%26quot%3B%26gt%3B%26lt%3Bfonte% 20style%3D%26quot%3Bvertical-align%3A%20inherit%3B%26quot%3B%20dir%3D%26quot%3Bauto%26quot%3B%26gt%3BCodPostal%26lt%3B%2Ffont%26gt%3B%26lt%3B%2Ffont%26gt%3B%26lt%3B%2Ffont%26gt%3B%26lt%3B%2Ffont%26gt%3B%26lt%3B%2Ffo nt%26gt%3B%26lt%3B%2Ffont%26gt%3B%26lt%3B%2Ffont%26gt%3B%26lt%3B%2Ffont%26gt%3B%26lt%3B%2Ffont% 26gt% 3B% 22% 20estilo% 3D% 22elipse% 3BwhiteSpace% 3Dwrap% 3Bhtml% 3D1% 3Balign% 3Dcenter% 3B% 22% 20vértice% 3 D%221%22%20pai%3D%221%22%3E%3CmxGeometria%20x%3D%22670%22%20y%3D%22750%22%20largura%3D%22100%22%20altura%3D%2240%22%20as%3D%22geometria%22%2F%3E%3C%2FmxCélula%3E%3C%2Froot%3E%3C%2FmxModeloGráfico%3E&lt;/font&gt;&lt;/font&gt;&lt;/span&gt;" style="ellipse;whiteSpace=wrap;html=1;align=center;" parent="1" vertex="1">
          <mxGeometry x="300" y="780" width="100" height="40" as="geometry" />
        </mxCell>
        <mxCell id="LriPo0vyb83jJ2V908es-10" value="&lt;font style=&quot;vertical-align: inherit;&quot; dir=&quot;auto&quot;&gt;&lt;font style=&quot;vertical-align: inherit;&quot; dir=&quot;auto&quot;&gt;Pais&lt;/font&gt;&lt;/font&gt;" style="ellipse;whiteSpace=wrap;html=1;align=center;" parent="1" vertex="1">
          <mxGeometry x="420" y="750" width="100" height="40" as="geometry" />
        </mxCell>
        <mxCell id="LriPo0vyb83jJ2V908es-11" value="&lt;font style=&quot;vertical-align: inherit;&quot; dir=&quot;auto&quot;&gt;&lt;font style=&quot;vertical-align: inherit;&quot; dir=&quot;auto&quot;&gt;&lt;font style=&quot;vertical-align: inherit;&quot; dir=&quot;auto&quot;&gt;&lt;font style=&quot;vertical-align: inherit;&quot; dir=&quot;auto&quot;&gt;AnoFundacao&lt;/font&gt;&lt;/font&gt;&lt;/font&gt;&lt;/font&gt;" style="ellipse;whiteSpace=wrap;html=1;align=center;" parent="1" vertex="1">
          <mxGeometry x="420" y="280" width="100" height="40" as="geometry" />
        </mxCell>
        <mxCell id="LriPo0vyb83jJ2V908es-12" value="" style="endArrow=none;html=1;rounded=0;exitX=0.767;exitY=0.901;exitDx=0;exitDy=0;exitPerimeter=0;entryX=0;entryY=0;entryDx=0;entryDy=0;" parent="1" source="LriPo0vyb83jJ2V908es-2" target="LriPo0vyb83jJ2V908es-1" edge="1">
          <mxGeometry relative="1" as="geometry">
            <mxPoint x="650" y="660" as="sourcePoint" />
            <mxPoint x="810" y="660" as="targetPoint" />
          </mxGeometry>
        </mxCell>
        <mxCell id="LriPo0vyb83jJ2V908es-15" value="" style="endArrow=none;html=1;rounded=0;exitX=0;exitY=1;exitDx=0;exitDy=0;entryX=0;entryY=1;entryDx=0;entryDy=0;" parent="1" source="LriPo0vyb83jJ2V908es-59" target="LriPo0vyb83jJ2V908es-1" edge="1">
          <mxGeometry relative="1" as="geometry">
            <mxPoint x="306.5" y="552.5999999999999" as="sourcePoint" />
            <mxPoint x="910" y="690" as="targetPoint" />
          </mxGeometry>
        </mxCell>
        <mxCell id="LriPo0vyb83jJ2V908es-16" value="" style="endArrow=none;html=1;rounded=0;exitX=0.327;exitY=0.046;exitDx=0;exitDy=0;exitPerimeter=0;entryX=0.958;entryY=0.187;entryDx=0;entryDy=0;entryPerimeter=0;" parent="1" source="LriPo0vyb83jJ2V908es-6" target="LriPo0vyb83jJ2V908es-59" edge="1">
          <mxGeometry relative="1" as="geometry">
            <mxPoint x="400" y="663" as="sourcePoint" />
            <mxPoint x="236" y="580" as="targetPoint" />
          </mxGeometry>
        </mxCell>
        <mxCell id="LriPo0vyb83jJ2V908es-17" value="" style="endArrow=none;html=1;rounded=0;exitX=0;exitY=0;exitDx=0;exitDy=0;entryX=0.728;entryY=0.008;entryDx=0;entryDy=0;entryPerimeter=0;" parent="1" source="LriPo0vyb83jJ2V908es-7" target="LriPo0vyb83jJ2V908es-59" edge="1">
          <mxGeometry relative="1" as="geometry">
            <mxPoint x="407" y="772" as="sourcePoint" />
            <mxPoint x="260" y="589.9999999999998" as="targetPoint" />
          </mxGeometry>
        </mxCell>
        <mxCell id="LriPo0vyb83jJ2V908es-19" value="" style="endArrow=none;html=1;rounded=0;exitX=0;exitY=0;exitDx=0;exitDy=0;entryX=0.5;entryY=0;entryDx=0;entryDy=0;" parent="1" source="LriPo0vyb83jJ2V908es-8" target="LriPo0vyb83jJ2V908es-59" edge="1">
          <mxGeometry relative="1" as="geometry">
            <mxPoint x="445" y="846" as="sourcePoint" />
            <mxPoint x="280" y="589.9999999999998" as="targetPoint" />
          </mxGeometry>
        </mxCell>
        <mxCell id="LriPo0vyb83jJ2V908es-20" value="" style="endArrow=none;html=1;rounded=0;exitX=0;exitY=0;exitDx=0;exitDy=0;entryX=0.215;entryY=0.085;entryDx=0;entryDy=0;entryPerimeter=0;" parent="1" source="LriPo0vyb83jJ2V908es-10" target="LriPo0vyb83jJ2V908es-59" edge="1">
          <mxGeometry relative="1" as="geometry">
            <mxPoint x="605" y="816" as="sourcePoint" />
            <mxPoint x="306.5" y="588" as="targetPoint" />
          </mxGeometry>
        </mxCell>
        <mxCell id="LriPo0vyb83jJ2V908es-21" value="" style="endArrow=none;html=1;rounded=0;exitX=0;exitY=0.25;exitDx=0;exitDy=0;entryX=0.407;entryY=0.008;entryDx=0;entryDy=0;entryPerimeter=0;exitPerimeter=0;" parent="1" source="LriPo0vyb83jJ2V908es-9" target="LriPo0vyb83jJ2V908es-59" edge="1">
          <mxGeometry relative="1" as="geometry">
            <mxPoint x="698" y="878" as="sourcePoint" />
            <mxPoint x="298.8000000000002" y="591.0799999999999" as="targetPoint" />
          </mxGeometry>
        </mxCell>
        <mxCell id="LriPo0vyb83jJ2V908es-24" value="" style="endArrow=none;html=1;rounded=0;exitX=0.5;exitY=1;exitDx=0;exitDy=0;entryX=0.25;entryY=0;entryDx=0;entryDy=0;" parent="1" source="LriPo0vyb83jJ2V908es-3" target="LriPo0vyb83jJ2V908es-1" edge="1">
          <mxGeometry relative="1" as="geometry">
            <mxPoint x="750" y="690" as="sourcePoint" />
            <mxPoint x="910" y="690" as="targetPoint" />
          </mxGeometry>
        </mxCell>
        <mxCell id="LriPo0vyb83jJ2V908es-25" value="" style="endArrow=none;html=1;rounded=0;exitX=0.5;exitY=0;exitDx=0;exitDy=0;entryX=0;entryY=1;entryDx=0;entryDy=0;" parent="1" source="LriPo0vyb83jJ2V908es-1" target="LriPo0vyb83jJ2V908es-11" edge="1">
          <mxGeometry relative="1" as="geometry">
            <mxPoint x="390" y="380" as="sourcePoint" />
            <mxPoint x="445" y="530" as="targetPoint" />
          </mxGeometry>
        </mxCell>
        <mxCell id="LriPo0vyb83jJ2V908es-26" value="&lt;font style=&quot;vertical-align: inherit;&quot; dir=&quot;auto&quot;&gt;&lt;font style=&quot;vertical-align: inherit;&quot; dir=&quot;auto&quot;&gt;JOGADOR&lt;/font&gt;&lt;/font&gt;" style="whiteSpace=wrap;html=1;align=center;" parent="1" vertex="1">
          <mxGeometry x="770" y="470" width="130" height="50" as="geometry" />
        </mxCell>
        <mxCell id="LriPo0vyb83jJ2V908es-29" value="Nome" style="ellipse;whiteSpace=wrap;html=1;align=center;" parent="1" vertex="1">
          <mxGeometry x="630" y="220" width="100" height="40" as="geometry" />
        </mxCell>
        <mxCell id="LriPo0vyb83jJ2V908es-30" value="DataNascimento" style="ellipse;whiteSpace=wrap;html=1;align=center;" parent="1" vertex="1">
          <mxGeometry x="720" y="160" width="100" height="40" as="geometry" />
        </mxCell>
        <mxCell id="LriPo0vyb83jJ2V908es-31" value="NumJogador" style="ellipse;whiteSpace=wrap;html=1;align=center;fontStyle=4;rotation=0;" parent="1" vertex="1">
          <mxGeometry x="540" y="260" width="100" height="40" as="geometry" />
        </mxCell>
        <mxCell id="LriPo0vyb83jJ2V908es-32" value="Género" style="ellipse;whiteSpace=wrap;html=1;align=center;" parent="1" vertex="1">
          <mxGeometry x="850" y="140" width="100" height="40" as="geometry" />
        </mxCell>
        <mxCell id="LriPo0vyb83jJ2V908es-33" value="Posição" style="ellipse;whiteSpace=wrap;html=1;align=center;" parent="1" vertex="1">
          <mxGeometry x="940" y="180" width="100" height="40" as="geometry" />
        </mxCell>
        <mxCell id="LriPo0vyb83jJ2V908es-35" value="" style="endArrow=none;html=1;rounded=0;exitX=0.695;exitY=0.994;exitDx=0;exitDy=0;exitPerimeter=0;entryX=0;entryY=0;entryDx=0;entryDy=0;" parent="1" source="LriPo0vyb83jJ2V908es-31" target="LriPo0vyb83jJ2V908es-26" edge="1">
          <mxGeometry relative="1" as="geometry">
            <mxPoint x="750" y="660" as="sourcePoint" />
            <mxPoint x="910" y="660" as="targetPoint" />
          </mxGeometry>
        </mxCell>
        <mxCell id="LriPo0vyb83jJ2V908es-36" value="" style="endArrow=none;html=1;rounded=0;exitX=0.5;exitY=1;exitDx=0;exitDy=0;entryX=0.14;entryY=-0.08;entryDx=0;entryDy=0;entryPerimeter=0;" parent="1" source="LriPo0vyb83jJ2V908es-29" target="LriPo0vyb83jJ2V908es-26" edge="1">
          <mxGeometry relative="1" as="geometry">
            <mxPoint x="730" y="420" as="sourcePoint" />
            <mxPoint x="850" y="540" as="targetPoint" />
          </mxGeometry>
        </mxCell>
        <mxCell id="LriPo0vyb83jJ2V908es-37" value="" style="endArrow=none;html=1;rounded=0;exitX=0.282;exitY=0.962;exitDx=0;exitDy=0;entryX=0.352;entryY=0.045;entryDx=0;entryDy=0;entryPerimeter=0;exitPerimeter=0;" parent="1" source="LriPo0vyb83jJ2V908es-30" target="LriPo0vyb83jJ2V908es-26" edge="1">
          <mxGeometry relative="1" as="geometry">
            <mxPoint x="800" y="410" as="sourcePoint" />
            <mxPoint x="868" y="566" as="targetPoint" />
          </mxGeometry>
        </mxCell>
        <mxCell id="LriPo0vyb83jJ2V908es-38" value="" style="endArrow=none;html=1;rounded=0;exitX=0;exitY=0.5;exitDx=0;exitDy=0;entryX=0.602;entryY=0.02;entryDx=0;entryDy=0;entryPerimeter=0;" parent="1" source="LriPo0vyb83jJ2V908es-32" target="LriPo0vyb83jJ2V908es-26" edge="1">
          <mxGeometry relative="1" as="geometry">
            <mxPoint x="870" y="330" as="sourcePoint" />
            <mxPoint x="873" y="494" as="targetPoint" />
          </mxGeometry>
        </mxCell>
        <mxCell id="LriPo0vyb83jJ2V908es-40" value="" style="endArrow=none;html=1;rounded=0;exitX=0;exitY=1;exitDx=0;exitDy=0;entryX=0.75;entryY=0;entryDx=0;entryDy=0;" parent="1" source="LriPo0vyb83jJ2V908es-33" target="LriPo0vyb83jJ2V908es-26" edge="1">
          <mxGeometry relative="1" as="geometry">
            <mxPoint x="947" y="380" as="sourcePoint" />
            <mxPoint x="910" y="531" as="targetPoint" />
          </mxGeometry>
        </mxCell>
        <mxCell id="LriPo0vyb83jJ2V908es-41" value="Idade" style="ellipse;whiteSpace=wrap;html=1;align=center;dashed=1;" parent="1" vertex="1">
          <mxGeometry x="1000" y="240" width="110" height="40" as="geometry" />
        </mxCell>
        <mxCell id="LriPo0vyb83jJ2V908es-43" value="JOGO" style="whiteSpace=wrap;html=1;align=center;" parent="1" vertex="1">
          <mxGeometry x="1360" y="460" width="130" height="50" as="geometry" />
        </mxCell>
        <mxCell id="LriPo0vyb83jJ2V908es-45" value="NumJogo" style="ellipse;whiteSpace=wrap;html=1;align=center;fontStyle=4;" parent="1" vertex="1">
          <mxGeometry x="1110" y="280" width="110" height="40" as="geometry" />
        </mxCell>
        <mxCell id="LriPo0vyb83jJ2V908es-46" value="Data" style="ellipse;whiteSpace=wrap;html=1;align=center;" parent="1" vertex="1">
          <mxGeometry x="1290" y="200" width="100" height="40" as="geometry" />
        </mxCell>
        <mxCell id="LriPo0vyb83jJ2V908es-47" value="Local" style="ellipse;whiteSpace=wrap;html=1;align=center;" parent="1" vertex="1">
          <mxGeometry x="1180" y="220" width="100" height="40" as="geometry" />
        </mxCell>
        <mxCell id="LriPo0vyb83jJ2V908es-48" value="Visitado" style="ellipse;whiteSpace=wrap;html=1;align=center;" parent="1" vertex="1">
          <mxGeometry x="1520" y="240" width="100" height="40" as="geometry" />
        </mxCell>
        <mxCell id="LriPo0vyb83jJ2V908es-49" value="Visitante" style="ellipse;whiteSpace=wrap;html=1;align=center;" parent="1" vertex="1">
          <mxGeometry x="1420" y="210" width="100" height="40" as="geometry" />
        </mxCell>
        <mxCell id="LriPo0vyb83jJ2V908es-50" value="Resultado?" style="ellipse;whiteSpace=wrap;html=1;align=center;" parent="1" vertex="1">
          <mxGeometry x="1554" y="310" width="100" height="40" as="geometry" />
        </mxCell>
        <mxCell id="LriPo0vyb83jJ2V908es-53" value="" style="endArrow=none;html=1;rounded=0;exitX=0.636;exitY=1;exitDx=0;exitDy=0;exitPerimeter=0;entryX=0;entryY=0;entryDx=0;entryDy=0;" parent="1" source="LriPo0vyb83jJ2V908es-45" target="LriPo0vyb83jJ2V908es-43" edge="1">
          <mxGeometry relative="1" as="geometry">
            <mxPoint x="990" y="620" as="sourcePoint" />
            <mxPoint x="1150" y="620" as="targetPoint" />
          </mxGeometry>
        </mxCell>
        <mxCell id="LriPo0vyb83jJ2V908es-54" value="" style="endArrow=none;html=1;rounded=0;exitX=0.657;exitY=0.962;exitDx=0;exitDy=0;exitPerimeter=0;entryX=0.188;entryY=0.045;entryDx=0;entryDy=0;entryPerimeter=0;" parent="1" source="LriPo0vyb83jJ2V908es-47" target="LriPo0vyb83jJ2V908es-43" edge="1">
          <mxGeometry relative="1" as="geometry">
            <mxPoint x="1220" y="350" as="sourcePoint" />
            <mxPoint x="1280" y="470" as="targetPoint" />
          </mxGeometry>
        </mxCell>
        <mxCell id="LriPo0vyb83jJ2V908es-55" value="" style="endArrow=none;html=1;rounded=0;exitX=0.27;exitY=0.994;exitDx=0;exitDy=0;entryX=0.371;entryY=0.045;entryDx=0;entryDy=0;entryPerimeter=0;exitPerimeter=0;" parent="1" source="LriPo0vyb83jJ2V908es-46" target="LriPo0vyb83jJ2V908es-43" edge="1">
          <mxGeometry relative="1" as="geometry">
            <mxPoint x="1290" y="410" as="sourcePoint" />
            <mxPoint x="1318" y="604" as="targetPoint" />
          </mxGeometry>
        </mxCell>
        <mxCell id="LriPo0vyb83jJ2V908es-56" value="" style="endArrow=none;html=1;rounded=0;exitX=0;exitY=0.5;exitDx=0;exitDy=0;entryX=0.5;entryY=0;entryDx=0;entryDy=0;" parent="1" source="LriPo0vyb83jJ2V908es-49" target="LriPo0vyb83jJ2V908es-43" edge="1">
          <mxGeometry relative="1" as="geometry">
            <mxPoint x="1399" y="330" as="sourcePoint" />
            <mxPoint x="1380" y="542" as="targetPoint" />
          </mxGeometry>
        </mxCell>
        <mxCell id="LriPo0vyb83jJ2V908es-57" value="" style="endArrow=none;html=1;rounded=0;exitX=0.045;exitY=0.806;exitDx=0;exitDy=0;exitPerimeter=0;entryX=0.862;entryY=-0.005;entryDx=0;entryDy=0;entryPerimeter=0;" parent="1" source="LriPo0vyb83jJ2V908es-48" target="LriPo0vyb83jJ2V908es-43" edge="1">
          <mxGeometry relative="1" as="geometry">
            <mxPoint x="1665" y="330" as="sourcePoint" />
            <mxPoint x="1361" y="475" as="targetPoint" />
          </mxGeometry>
        </mxCell>
        <mxCell id="LriPo0vyb83jJ2V908es-58" value="" style="endArrow=none;html=1;rounded=0;exitX=0.345;exitY=0.962;exitDx=0;exitDy=0;entryX=1;entryY=0.75;entryDx=0;entryDy=0;exitPerimeter=0;" parent="1" source="LriPo0vyb83jJ2V908es-50" target="LriPo0vyb83jJ2V908es-43" edge="1">
          <mxGeometry relative="1" as="geometry">
            <mxPoint x="1714" y="350" as="sourcePoint" />
            <mxPoint x="1570" y="533" as="targetPoint" />
          </mxGeometry>
        </mxCell>
        <mxCell id="LriPo0vyb83jJ2V908es-59" value="Morada" style="ellipse;whiteSpace=wrap;html=1;align=center;direction=west;" parent="1" vertex="1">
          <mxGeometry x="230" y="540" width="120" height="60" as="geometry" />
        </mxCell>
        <mxCell id="LriPo0vyb83jJ2V908es-61" value="JOGOU" style="shape=rhombus;perimeter=rhombusPerimeter;whiteSpace=wrap;html=1;align=center;" parent="1" vertex="1">
          <mxGeometry x="790" y="820" width="120" height="60" as="geometry" />
        </mxCell>
        <mxCell id="LriPo0vyb83jJ2V908es-63" value="" style="endArrow=none;html=1;rounded=0;exitX=0.871;exitY=0.991;exitDx=0;exitDy=0;exitPerimeter=0;entryX=0;entryY=0.5;entryDx=0;entryDy=0;" parent="1" source="LriPo0vyb83jJ2V908es-1" target="LriPo0vyb83jJ2V908es-61" edge="1">
          <mxGeometry relative="1" as="geometry">
            <mxPoint x="770" y="850" as="sourcePoint" />
            <mxPoint x="930" y="850" as="targetPoint" />
            <Array as="points">
              <mxPoint x="512" y="730" />
              <mxPoint x="710" y="730" />
              <mxPoint x="710" y="850" />
            </Array>
          </mxGeometry>
        </mxCell>
        <mxCell id="FvILI9HItXo_LQA3j1v2-15" value="M" style="edgeLabel;html=1;align=center;verticalAlign=middle;resizable=0;points=[];" vertex="1" connectable="0" parent="LriPo0vyb83jJ2V908es-63">
          <mxGeometry x="-0.906" y="1" relative="1" as="geometry">
            <mxPoint x="7" as="offset" />
          </mxGeometry>
        </mxCell>
        <mxCell id="LriPo0vyb83jJ2V908es-67" value="FILIADO_A" style="shape=rhombus;perimeter=rhombusPerimeter;whiteSpace=wrap;html=1;align=center;" parent="1" vertex="1">
          <mxGeometry x="690" y="590" width="120" height="60" as="geometry" />
        </mxCell>
        <mxCell id="LriPo0vyb83jJ2V908es-68" value="Escalão" style="ellipse;whiteSpace=wrap;html=1;align=center;" parent="1" vertex="1">
          <mxGeometry x="790" y="660" width="100" height="40" as="geometry" />
        </mxCell>
        <mxCell id="LriPo0vyb83jJ2V908es-69" value="AnoCorrente" style="ellipse;whiteSpace=wrap;html=1;align=center;" parent="1" vertex="1">
          <mxGeometry x="610" y="660" width="100" height="40" as="geometry" />
        </mxCell>
        <mxCell id="LriPo0vyb83jJ2V908es-70" value="" style="endArrow=none;html=1;rounded=0;exitX=0;exitY=1;exitDx=0;exitDy=0;entryX=0.36;entryY=0.096;entryDx=0;entryDy=0;entryPerimeter=0;" parent="1" source="LriPo0vyb83jJ2V908es-67" target="LriPo0vyb83jJ2V908es-69" edge="1">
          <mxGeometry relative="1" as="geometry">
            <mxPoint x="970" y="660" as="sourcePoint" />
            <mxPoint x="1130" y="660" as="targetPoint" />
          </mxGeometry>
        </mxCell>
        <mxCell id="LriPo0vyb83jJ2V908es-71" value="" style="endArrow=none;html=1;rounded=0;exitX=0.75;exitY=0.75;exitDx=0;exitDy=0;entryX=0.061;entryY=0.204;entryDx=0;entryDy=0;entryPerimeter=0;exitPerimeter=0;" parent="1" source="LriPo0vyb83jJ2V908es-67" target="LriPo0vyb83jJ2V908es-68" edge="1">
          <mxGeometry relative="1" as="geometry">
            <mxPoint x="800" y="680" as="sourcePoint" />
            <mxPoint x="806" y="744" as="targetPoint" />
          </mxGeometry>
        </mxCell>
        <mxCell id="LriPo0vyb83jJ2V908es-73" value="" style="shape=link;html=1;rounded=0;exitX=1;exitY=0.5;exitDx=0;exitDy=0;entryX=0;entryY=0.5;entryDx=0;entryDy=0;" parent="1" source="LriPo0vyb83jJ2V908es-1" target="LriPo0vyb83jJ2V908es-67" edge="1">
          <mxGeometry relative="1" as="geometry">
            <mxPoint x="970" y="660" as="sourcePoint" />
            <mxPoint x="1130" y="660" as="targetPoint" />
            <Array as="points">
              <mxPoint x="600" y="495" />
              <mxPoint x="600" y="620" />
            </Array>
          </mxGeometry>
        </mxCell>
        <mxCell id="FvILI9HItXo_LQA3j1v2-11" value="1" style="edgeLabel;html=1;align=center;verticalAlign=middle;resizable=0;points=[];" vertex="1" connectable="0" parent="LriPo0vyb83jJ2V908es-73">
          <mxGeometry x="-0.2706" y="2" relative="1" as="geometry">
            <mxPoint as="offset" />
          </mxGeometry>
        </mxCell>
        <mxCell id="FvILI9HItXo_LQA3j1v2-4" value="" style="endArrow=none;html=1;rounded=0;entryX=0;entryY=1;entryDx=0;entryDy=0;exitX=1;exitY=0;exitDx=0;exitDy=0;dashed=1;" edge="1" parent="1" source="LriPo0vyb83jJ2V908es-26" target="LriPo0vyb83jJ2V908es-41">
          <mxGeometry relative="1" as="geometry">
            <mxPoint x="760" y="600" as="sourcePoint" />
            <mxPoint x="920" y="600" as="targetPoint" />
          </mxGeometry>
        </mxCell>
        <mxCell id="FvILI9HItXo_LQA3j1v2-7" value="" style="endArrow=none;html=1;rounded=0;exitX=1;exitY=0.5;exitDx=0;exitDy=0;entryX=1;entryY=0.25;entryDx=0;entryDy=0;" edge="1" parent="1" source="LriPo0vyb83jJ2V908es-67" target="LriPo0vyb83jJ2V908es-26">
          <mxGeometry relative="1" as="geometry">
            <mxPoint x="760" y="600" as="sourcePoint" />
            <mxPoint x="980" y="620" as="targetPoint" />
            <Array as="points">
              <mxPoint x="980" y="620" />
              <mxPoint x="980" y="483" />
            </Array>
          </mxGeometry>
        </mxCell>
        <mxCell id="FvILI9HItXo_LQA3j1v2-8" value="N" style="resizable=0;html=1;whiteSpace=wrap;align=right;verticalAlign=bottom;" connectable="0" vertex="1" parent="FvILI9HItXo_LQA3j1v2-7">
          <mxGeometry x="1" relative="1" as="geometry" />
        </mxCell>
        <mxCell id="FvILI9HItXo_LQA3j1v2-12" value="" style="shape=link;html=1;rounded=0;exitX=1;exitY=0.5;exitDx=0;exitDy=0;entryX=0.25;entryY=1;entryDx=0;entryDy=0;" edge="1" parent="1" source="LriPo0vyb83jJ2V908es-61" target="LriPo0vyb83jJ2V908es-43">
          <mxGeometry relative="1" as="geometry">
            <mxPoint x="940" y="849.29" as="sourcePoint" />
            <mxPoint x="1100" y="849.29" as="targetPoint" />
            <Array as="points">
              <mxPoint x="1393" y="850" />
            </Array>
          </mxGeometry>
        </mxCell>
        <mxCell id="FvILI9HItXo_LQA3j1v2-13" value="N" style="resizable=0;html=1;whiteSpace=wrap;align=right;verticalAlign=bottom;" connectable="0" vertex="1" parent="FvILI9HItXo_LQA3j1v2-12">
          <mxGeometry x="1" relative="1" as="geometry" />
        </mxCell>
      </root>
    </mxGraphModel>
  </diagram>
</mxfile>
